HIERARCHY
ROOT Pelvis
{
	OFFSET 0.000000 0.000000 0.000000
	CHANNELS 6 Xposition Yposition Zposition Zrotation Yrotation Xrotation 
	JOINT Left_hip
	{
		OFFSET 0.070241 -0.085575 -0.010474
		CHANNELS 3 Zrotation Yrotation Xrotation
		JOINT Left_knee
		{
			OFFSET 0.032125 -0.356873 -0.000555
			CHANNELS 3 Zrotation Yrotation Xrotation
			JOINT Left_ankle
			{
				OFFSET -0.010961 -0.370212 -0.042278
				CHANNELS 3 Zrotation Yrotation Xrotation
				JOINT Left_foot
				{
					OFFSET 0.023322 -0.052281 0.110104
					CHANNELS 3 Zrotation Yrotation Xrotation
					End Site
					{
						OFFSET 0.000000 0.000000 0.000000
					}
				}
			}
		}
	}
	JOINT Right_hip
	{
		OFFSET -0.068518 -0.084320 -0.007402
		CHANNELS 3 Zrotation Yrotation Xrotation
		JOINT Right_knee
		{
			OFFSET -0.037345 -0.364815 -0.003619
			CHANNELS 3 Zrotation Yrotation Xrotation
			JOINT Right_ankle
			{
				OFFSET 0.013394 -0.370006 -0.039954
				CHANNELS 3 Zrotation Yrotation Xrotation
				JOINT Right_foot
				{
					OFFSET -0.019600 -0.045455 0.113223
					CHANNELS 3 Zrotation Yrotation Xrotation
					End Site
					{
						OFFSET 0.000000 0.000000 0.000000
					}
				}
			}
		}
	}
	JOINT Spine1
	{
		OFFSET -0.002404 0.098129 -0.018169
		CHANNELS 3 Zrotation Yrotation Xrotation
		JOINT Spine2
		{
			OFFSET 0.003989 0.127209 -0.001742
			CHANNELS 3 Zrotation Yrotation Xrotation
			JOINT Spine3
			{
				OFFSET 0.001758 0.046641 0.023475
				CHANNELS 3 Zrotation Yrotation Xrotation
				JOINT Neck
				{
					OFFSET -0.003759 0.194901 -0.039982
					CHANNELS 3 Zrotation Yrotation Xrotation
					JOINT Head
					{
						OFFSET 0.003999 0.063756 0.047665
						CHANNELS 3 Zrotation Yrotation Xrotation
						End Site
						{
							OFFSET 0.000000 0.000000 0.000000
						}
					}
				}
				JOINT Left_collar
				{
					OFFSET 0.071816 0.109048 -0.028973
					CHANNELS 3 Zrotation Yrotation Xrotation
					JOINT Left_shoulder
					{
						OFFSET 0.084027 0.032269 -0.006525
						CHANNELS 3 Zrotation Yrotation Xrotation
						JOINT Left_elbow
						{
							OFFSET 0.243854 -0.013992 -0.025905
							CHANNELS 3 Zrotation Yrotation Xrotation
							JOINT Left_wrist
							{
								OFFSET 0.232156 0.008196 -0.000339
								CHANNELS 3 Zrotation Yrotation Xrotation
								JOINT Left_palm
								{
									OFFSET 0.075377 -0.009461 -0.012494
									CHANNELS 3 Zrotation Yrotation Xrotation
									End Site
									{
										OFFSET 0.000000 0.000000 0.000000
									}
								}
							}
						}
					}
				}
				JOINT Right_collar
				{
					OFFSET -0.073768 0.107001 -0.033755
					CHANNELS 3 Zrotation Yrotation Xrotation
					JOINT Right_shoulder
					{
						OFFSET -0.086837 0.032868 -0.009431
						CHANNELS 3 Zrotation Yrotation Xrotation
						JOINT Right_elbow
						{
							OFFSET -0.236446 -0.012544 -0.018747
							CHANNELS 3 Zrotation Yrotation Xrotation
							JOINT Right_wrist
							{
								OFFSET -0.236110 0.006124 -0.004327
								CHANNELS 3 Zrotation Yrotation Xrotation
								JOINT Right_palm
								{
									OFFSET -0.074800 -0.006875 -0.009610
									CHANNELS 3 Zrotation Yrotation Xrotation
									End Site
									{
										OFFSET 0.000000 0.000000 0.000000
									}
								}
							}
						}
					}
				}
			}
		}
	}
}
MOTION
Frames: 8
Frame Time: 0.100000
0.079831 -0.104921 0.575236 114.519964 74.472425 -69.258288 -0.361737 4.544599 4.614097 -0.765950 4.711861 -2.181026 2.193209 7.851851 -0.368127 -4.246713 13.517330 -15.790726 5.862229 -1.665678 -6.886324 0.303630 1.215669 6.462491 7.607636 -10.252737 -3.280975 -8.343709 5.931573 9.438775 -2.339280 0.854621 4.205425 2.423580 -5.818469 -2.252082 0.942692 0.978394 3.268298 -8.525641 -4.953990 9.637867 8.323648 1.210739 3.717058 -0.366935 -15.479993 -8.832859 -72.059751 -35.727280 34.650410 111.941179 -68.009461 -108.739089 -0.404409 2.311982 -45.306815 -27.424944 -13.204548 -6.267364 2.732449 2.356222 -4.988972 52.560256 3.999755 14.137720 -77.222822 81.078457 -54.852582 -3.456474 -7.331101 -3.880667 29.878394 18.992001 -10.593270 
0.060083 -0.102746 0.574178 123.375771 75.094257 -60.423450 -2.046550 3.696561 3.518403 -0.404338 6.050075 2.623718 0.006725 9.036493 -2.538545 2.896210 11.381754 -12.726204 3.696711 -0.740704 -4.933000 0.515723 0.738178 5.065031 7.754438 -8.406814 -3.577263 -8.903350 6.241934 6.702788 -1.431936 1.635508 2.482005 2.976680 -5.755234 0.409066 0.722744 1.135161 0.748332 -10.428534 -5.082777 7.712641 6.868267 1.450314 5.654025 -4.946580 -14.597383 -6.540551 -70.545067 -35.703881 37.305503 107.813201 -67.843472 -108.730325 7.753308 0.371581 -52.251653 -27.881986 -12.079220 -7.479995 7.101449 6.659060 -5.396343 52.318526 8.036603 18.770643 -136.311081 70.613784 -133.877407 -3.179398 3.236960 -46.258681 28.643999 13.597529 -5.250166 
0.044209 -0.102172 0.575314 118.162374 76.492232 -65.671896 -0.484862 2.743825 -4.784753 -1.859780 7.390178 20.645777 1.423121 6.658914 -2.361770 -2.541943 12.567560 -17.902241 2.206614 -2.248167 -4.329472 1.679827 1.489998 6.980984 8.299409 -6.900284 -4.979856 -9.294494 4.814339 5.940985 -1.068891 3.129441 2.455513 3.728453 -6.404313 0.299819 0.533825 2.359203 0.055691 -10.925244 -6.157607 6.312651 6.485441 1.316605 8.513956 -2.936097 -20.107568 -4.437267 -70.670524 -34.084175 33.028866 104.389940 -70.304199 -102.593086 19.149381 7.959739 -53.463707 -24.899538 -10.543011 -4.765072 7.093452 12.523083 -2.965202 53.035800 19.373240 15.091212 -163.888814 68.905057 -145.910071 -39.113194 3.242488 -2.145040 30.607672 14.290509 -7.903974 
0.028679 -0.102649 0.574462 122.873977 76.819116 -62.738619 2.981089 0.835969 -10.237812 -6.386270 3.153254 33.809280 -0.729410 4.160513 -1.822422 -1.381295 11.391988 -20.821412 0.458971 -3.665640 -1.382560 2.535137 2.696153 7.095077 8.459572 -7.032050 -5.889056 -12.576182 4.302429 3.247112 -0.634917 4.489247 3.885146 2.549605 -6.586976 0.213713 0.231219 3.152896 0.253663 -11.443224 -8.522558 6.614684 7.780228 3.054836 10.290136 -2.454913 -21.648423 -3.182894 -70.603621 -34.160989 30.194819 106.542612 -74.172513 -102.282302 15.542435 7.990448 -52.381817 -23.419526 -9.254999 -2.034992 3.524498 15.848770 -2.683762 50.099232 29.003797 11.692172 172.966319 76.735233 -165.358302 -36.184556 6.097889 13.447025 28.442507 14.651569 -7.072815 
0.010090 -0.104364 0.566190 133.546699 75.578675 -52.893216 7.267646 1.918308 -10.316528 -3.461605 0.853272 28.692959 -0.008961 5.062528 -1.204813 -2.956228 11.529183 -20.647175 -0.613112 -3.832433 0.401765 1.893411 4.229410 6.582319 8.315177 -7.167067 -6.273946 -11.740652 4.145670 4.318892 -0.838882 4.948826 4.291998 1.157332 -5.466921 -0.234699 -0.104497 4.078764 0.747305 -10.046325 -8.575606 7.428065 7.767043 2.882863 10.715131 -2.236257 -21.354129 -4.299697 -68.081036 -31.089112 29.039516 104.983883 -76.382961 -100.116896 13.659726 8.707640 -51.772201 -24.015565 -9.915354 -2.207922 1.468989 17.303537 -2.470829 46.885841 30.519118 10.098058 172.977099 84.113723 -164.346154 -35.377405 4.564041 15.228937 28.277945 14.945262 -8.047351 
-0.010462 -0.100670 0.547266 140.846033 72.820159 -45.843498 11.523334 2.197699 -8.496998 -0.547425 -5.211166 16.241369 -2.372168 4.059029 5.203177 -1.272184 11.419174 -19.939171 -1.221273 -3.165634 0.749786 1.613748 5.459007 7.248207 7.536340 -8.097694 -7.510349 -11.731994 3.679747 5.699743 0.479329 4.246970 5.573510 0.256429 -4.400724 -2.229573 -0.073305 4.054027 2.201065 -8.774024 -7.479683 6.688628 6.200412 1.934784 9.362476 -1.393523 -17.251773 -6.296526 -63.028908 -27.998660 27.237862 91.800639 -79.909484 -84.005525 10.365417 8.845759 -44.789323 -25.270971 -11.480167 -3.669053 0.089118 15.360578 -3.987847 45.442810 28.011925 10.477036 -94.474071 88.099100 -75.555707 -28.213359 -0.969318 6.025039 27.677644 15.134632 -8.525958 
-0.034653 -0.092291 0.513165 148.047374 69.625189 -38.716691 12.511121 2.442913 -7.026422 0.306697 -7.973244 8.361658 -3.971232 4.969304 7.274984 2.137064 10.192924 -17.694291 -3.127040 -2.253786 -0.787310 1.167997 6.793119 10.091990 7.348611 -8.524219 -8.301404 -12.014671 3.941993 4.988272 1.768857 3.384980 7.063331 -0.725044 -3.781906 -3.800603 -0.168248 4.011288 2.687881 -8.316463 -7.512322 6.066361 5.258290 2.961708 9.244816 -2.042988 -15.000355 -7.617970 -57.250415 -26.839122 26.006513 76.131073 -79.966147 -70.274205 6.249126 8.758593 -42.528715 -26.935765 -13.087134 -5.311344 -1.281976 15.478709 -5.339133 41.276694 26.329844 12.033446 -97.922396 89.399602 -88.082075 -13.517502 -4.774228 -14.438450 26.436964 14.762353 -8.283217 
-0.059450 -0.082315 0.466282 152.070055 67.719200 -34.265117 9.628831 3.388477 -7.344264 -0.983332 -5.359789 9.566600 -2.164524 7.920598 3.865023 2.881528 8.307463 -16.134215 -5.990949 -2.082147 -3.079512 0.208004 8.577728 12.669715 9.778337 -8.874445 -7.222050 -14.379884 5.423108 2.266624 1.638529 3.058288 7.768214 -0.977841 -4.046927 -4.471713 -0.266222 3.993544 2.580653 -8.509300 -8.920617 5.171349 6.274833 3.743489 10.227144 -1.840947 -14.774275 -8.065801 -50.010972 -26.794810 21.814304 54.708983 -80.630772 -51.037959 -2.963194 4.041510 -40.190547 -24.929182 -12.902168 -5.754746 -2.198943 15.656777 -5.632336 34.343981 25.669882 9.301677 57.572245 86.947909 64.283464 -2.262786 -3.314245 -15.467162 23.993595 14.218058 -9.209697 
